<?xml version="1.0" encoding="utf-8"?>
<svg id="master-artboard" viewBox="0 0 703.2095336914062 704.4511108398438" version="1.1" xmlns="http://www.w3.org/2000/svg" x="0px" y="0px" style="enable-background:new 0 0 1400 980;" width="703.2095336914062px" height="704.4511108398438px"><defs><style id="ee-google-fonts">@import url(https://fonts.googleapis.com/css?family=Roboto:100,100italic,300,300italic,400,400italic,500,500italic,700,700italic,900,900italic);</style></defs>























































































































<rect id="ee-background" x="0" y="0" width="703.2095336914062" height="704.4511108398438" style="fill: rgb(20, 177, 255); fill-opacity: 1; pointer-events: none;"/><g transform="matrix(9.790209770202637, 0, 0, 9.790209770202637, 22.170632362365723, 93.50628280639648)"><g><g transform="matrix(1, 0, 0, 1, 0, -1.4210854715202004e-14)"><path d="M 59.272 15.146 C 57.54 15.146 55.929 16.557000000000002 55.69 18.28 L 53.93 31.113 C 53.736 32.511 53.066 33.723 51.922 34.751 C 50.776999999999994 35.778999999999996 49.486999999999995 36.293 48.056999999999995 36.293 C 46.66499999999999 36.293 45.53699999999999 35.79 44.675999999999995 34.782 C 43.812 33.775 43.480999999999995 32.552 43.678999999999995 31.112999999999996 L 44.74099999999999 23.324999999999996 C 44.77299999999999 21.770999999999997 43.60699999999999 20.554999999999996 41.998999999999995 20.554999999999996 L 37.788999999999994 20.554999999999996 C 36.181 20.554999999999996 34.67699999999999 21.770999999999997 34.28099999999999 23.324999999999996 L 33.18399999999999 31.112999999999996 C 32.98599999999999 32.553 32.31399999999999 33.775 31.17199999999999 34.782 C 30.02999999999999 35.79 28.76299999999999 36.293 27.37299999999999 36.293 C 25.98099999999999 36.293 24.84499999999999 35.778999999999996 23.96499999999999 34.751 C 23.08399999999999 33.724 22.74099999999999 32.510999999999996 22.93399999999999 31.113 L 25.29199999999999 14.085 C 25.54199999999999 12.427000000000001 24.55999999999999 10.695 23.06199999999999 9.992 C 23.06199999999999 9.992 5.303999999999991 2.5900000000000007 4.146999999999991 2.1140000000000008 C 2.9749999999999917 1.6340000000000008 1.6469999999999914 2.710000000000001 1.1929999999999912 4.504000000000001 L 0.10800000000000012 8.786999999999999 C -0.347 10.581 0.6779999999999995 12.620999999999999 2.383 13.32 L 14.283999999999999 18.246000000000002 L 12.501 31.113000000000003 C 11.902999999999999 35.428000000000004 12.914 39.120000000000005 15.539 42.182 C 18.163 45.246 21.622999999999998 46.776 25.921 46.776 C 29.887999999999998 46.776 33.510999999999996 45.441 36.786 42.768 C 39.402 45.441 42.676 46.776 46.604 46.776 C 50.900999999999996 46.776 54.785 45.246 58.257999999999996 42.182 C 61.73 39.120000000000005 63.766 35.428000000000004 64.36399999999999 31.113 C 64.36399999999999 31.113 66.22899999999998 17.534 66.26299999999999 17.296999999999997 C 66.425 16.112999999999996 65.14299999999999 15.146999999999997 63.41199999999999 15.146999999999997 L 59.27199999999999 15.146999999999997 L 59.272 15.146 Z" transform="matrix(1, 0, 0, 1, 0, -1.4210854715202004e-14)" style="fill: rgb(255, 245, 251);"/></g><path d="M -3.3705947399139404 -33.89118576049805" style="fill: rgb(255, 245, 251); fill-opacity: 1; stroke: rgb(0, 0, 0); stroke-opacity: 1; stroke-width: 0; paint-order: fill;" transform="matrix(1, 0, 0, 1, 0, -1.4210854715202004e-14)"/></g></g></svg>